<svg width="293" height="108" viewBox="0 0 293 108" fill="none" xmlns="http://www.w3.org/2000/svg">
<path d="M94 93H72.4545V23.1818H94.9545C101.727 23.1818 107.523 24.5795 112.341 27.375C117.159 30.1477 120.852 34.1364 123.42 39.3409C125.989 44.5227 127.273 50.7273 127.273 57.9545C127.273 65.2273 125.977 71.4886 123.386 76.7386C120.795 81.9659 117.023 85.9886 112.068 88.8068C107.114 91.6023 101.091 93 94 93ZM80.9091 85.5H93.4545C99.2273 85.5 104.011 84.3864 107.807 82.1591C111.602 79.9318 114.432 76.7614 116.295 72.6477C118.159 68.5341 119.091 63.6364 119.091 57.9545C119.091 52.3182 118.17 47.4659 116.33 43.3977C114.489 39.3068 111.739 36.1705 108.08 33.9886C104.42 31.7841 99.8636 30.6818 94.4091 30.6818H80.9091V85.5Z" fill="black"/>
<path d="M72.4545 93H71.4545V94H72.4545V93ZM72.4545 23.1818V22.1818H71.4545V23.1818H72.4545ZM112.341 27.375L111.839 28.24L111.842 28.2417L112.341 27.375ZM123.42 39.3409L122.524 39.7834L122.524 39.785L123.42 39.3409ZM123.386 76.7386L124.282 77.1827L124.283 77.1812L123.386 76.7386ZM112.068 88.8068L112.56 89.6778L112.563 89.676L112.068 88.8068ZM80.9091 85.5H79.9091V86.5H80.9091V85.5ZM116.33 43.3977L115.418 43.8081L115.418 43.81L116.33 43.3977ZM108.08 33.9886L107.563 34.8452L107.567 34.8475L108.08 33.9886ZM80.9091 30.6818V29.6818H79.9091V30.6818H80.9091ZM94 92H72.4545V94H94V92ZM73.4545 93V23.1818H71.4545V93H73.4545ZM72.4545 24.1818H94.9545V22.1818H72.4545V24.1818ZM94.9545 24.1818C101.589 24.1818 107.203 25.5502 111.839 28.24L112.843 26.51C107.842 23.6089 101.866 22.1818 94.9545 22.1818V24.1818ZM111.842 28.2417C116.481 30.9111 120.039 34.7483 122.524 39.7834L124.317 38.8984C121.665 33.5244 117.837 29.3843 112.84 26.5083L111.842 28.2417ZM122.524 39.785C125.009 44.7986 126.273 50.8438 126.273 57.9545H128.273C128.273 50.6108 126.968 44.2468 124.316 38.8968L122.524 39.785ZM126.273 57.9545C126.273 65.1101 124.998 71.213 122.49 76.2961L124.283 77.1812C126.956 71.7643 128.273 65.3444 128.273 57.9545H126.273ZM122.49 76.2945C119.986 81.3477 116.351 85.2204 111.574 87.9376L112.563 89.676C117.695 86.7569 121.605 82.5841 124.282 77.1827L122.49 76.2945ZM111.577 87.9359C106.805 90.6283 100.961 92 94 92V94C101.221 94 107.422 92.5763 112.56 89.6778L111.577 87.9359ZM80.9091 86.5H93.4545V84.5H80.9091V86.5ZM93.4545 86.5C99.3512 86.5 104.323 85.3628 108.313 83.0216L107.301 81.2966C103.699 83.41 99.1034 84.5 93.4545 84.5V86.5ZM108.313 83.0216C112.291 80.6869 115.26 77.3569 117.206 73.0604L115.385 72.2351C113.604 76.1658 110.913 79.1768 107.301 81.2966L108.313 83.0216ZM117.206 73.0604C119.142 68.7882 120.091 63.7431 120.091 57.9545H118.091C118.091 63.5296 117.176 68.28 115.385 72.2351L117.206 73.0604ZM120.091 57.9545C120.091 52.2121 119.153 47.2124 117.241 42.9855L115.418 43.81C117.188 47.7194 118.091 52.4243 118.091 57.9545H120.091ZM117.241 42.9874C115.321 38.72 112.437 35.4223 108.592 33.1297L107.567 34.8475C111.041 36.9186 113.656 39.8936 115.418 43.8081L117.241 42.9874ZM108.596 33.1321C104.743 30.811 99.9959 29.6818 94.4091 29.6818V31.6818C99.7314 31.6818 104.098 32.7572 107.563 34.8452L108.596 33.1321ZM94.4091 29.6818H80.9091V31.6818H94.4091V29.6818ZM79.9091 30.6818V85.5H81.9091V30.6818H79.9091Z" fill="#00A42E"/>
<path d="M165.045 19.9091L142.545 103.5H135.182L157.682 19.9091H165.045Z" fill="#00A42E"/>
<path d="M165.045 19.9091L166.011 20.169L166.35 18.9091H165.045V19.9091ZM142.545 103.5V104.5H143.312L143.511 103.76L142.545 103.5ZM135.182 103.5L134.216 103.24L133.877 104.5H135.182V103.5ZM157.682 19.9091V18.9091H156.915L156.716 19.6492L157.682 19.9091ZM164.08 19.6492L141.58 103.24L143.511 103.76L166.011 20.169L164.08 19.6492ZM142.545 102.5H135.182V104.5H142.545V102.5ZM136.147 103.76L158.647 20.169L156.716 19.6492L134.216 103.24L136.147 103.76ZM157.682 20.9091H165.045V18.9091H157.682V20.9091Z" fill="black"/>
<path d="M228.636 45H220.182C219.682 42.5682 218.807 40.4318 217.557 38.5909C216.33 36.75 214.83 35.2045 213.057 33.9545C211.307 32.6818 209.364 31.7273 207.227 31.0909C205.091 30.4545 202.864 30.1364 200.545 30.1364C196.318 30.1364 192.489 31.2045 189.057 33.3409C185.648 35.4773 182.932 38.625 180.909 42.7841C178.909 46.9432 177.909 52.0455 177.909 58.0909C177.909 64.1364 178.909 69.2386 180.909 73.3977C182.932 77.5568 185.648 80.7045 189.057 82.8409C192.489 84.9773 196.318 86.0455 200.545 86.0455C202.864 86.0455 205.091 85.7273 207.227 85.0909C209.364 84.4545 211.307 83.5114 213.057 82.2614C214.83 80.9886 216.33 79.4318 217.557 77.5909C218.807 75.7273 219.682 73.5909 220.182 71.1818H228.636C228 74.75 226.841 77.9432 225.159 80.7614C223.477 83.5795 221.386 85.9773 218.886 87.9545C216.386 89.9091 213.58 91.3977 210.466 92.4205C207.375 93.4432 204.068 93.9545 200.545 93.9545C194.591 93.9545 189.295 92.5 184.659 89.5909C180.023 86.6818 176.375 82.5455 173.716 77.1818C171.057 71.8182 169.727 65.4545 169.727 58.0909C169.727 50.7273 171.057 44.3636 173.716 39C176.375 33.6364 180.023 29.5 184.659 26.5909C189.295 23.6818 194.591 22.2273 200.545 22.2273C204.068 22.2273 207.375 22.7386 210.466 23.7614C213.58 24.7841 216.386 26.2841 218.886 28.2614C221.386 30.2159 223.477 32.6023 225.159 35.4205C226.841 38.2159 228 41.4091 228.636 45Z" fill="white"/>
<path d="M228.636 45V46H229.829L229.621 44.8255L228.636 45ZM220.182 45L219.202 45.2014L219.367 46H220.182V45ZM217.557 38.5909L216.725 39.1456L216.73 39.1527L217.557 38.5909ZM213.057 33.9545L212.469 34.7633L212.475 34.7676L212.481 34.7718L213.057 33.9545ZM207.227 31.0909L206.942 32.0493L206.942 32.0493L207.227 31.0909ZM189.057 33.3409L188.528 32.492L188.526 32.4935L189.057 33.3409ZM180.909 42.7841L180.01 42.3467L180.008 42.3507L180.909 42.7841ZM180.909 73.3977L180.008 73.8311L180.01 73.8351L180.909 73.3977ZM189.057 82.8409L188.526 83.6883L188.528 83.6899L189.057 82.8409ZM207.227 85.0909L206.942 84.1325L206.942 84.1325L207.227 85.0909ZM213.057 82.2614L213.638 83.0751L213.64 83.0737L213.057 82.2614ZM217.557 77.5909L216.726 77.0339L216.725 77.0362L217.557 77.5909ZM220.182 71.1818V70.1818H219.368L219.203 70.9786L220.182 71.1818ZM228.636 71.1818L229.621 71.3574L229.83 70.1818H228.636V71.1818ZM225.159 80.7614L224.3 80.2489L224.3 80.2489L225.159 80.7614ZM218.886 87.9545L219.502 88.7424L219.507 88.7389L218.886 87.9545ZM210.466 92.4205L210.154 91.4704L210.152 91.4711L210.466 92.4205ZM184.659 89.5909L184.128 90.438L184.128 90.438L184.659 89.5909ZM173.716 77.1818L174.612 76.7376L174.612 76.7376L173.716 77.1818ZM210.466 23.7614L210.152 24.7107L210.154 24.7114L210.466 23.7614ZM218.886 28.2614L218.266 29.0457L218.27 29.0492L218.886 28.2614ZM225.159 35.4205L224.3 35.9329L224.302 35.936L225.159 35.4205ZM228.636 44H220.182V46H228.636V44ZM221.161 44.7986C220.638 42.2527 219.716 39.9909 218.384 38.0292L216.73 39.1527C217.897 40.8727 218.726 42.8836 219.202 45.2014L221.161 44.7986ZM218.389 38.0362C217.095 36.0949 215.509 34.4597 213.633 33.1373L212.481 34.7718C214.151 35.9494 215.564 37.4051 216.725 39.1456L218.389 38.0362ZM213.645 33.1458C211.801 31.8044 209.754 30.8003 207.513 30.1325L206.942 32.0493C208.973 32.6543 210.813 33.5592 212.469 34.7633L213.645 33.1458ZM207.513 30.1325C205.28 29.4675 202.956 29.1364 200.545 29.1364V31.1364C202.771 31.1364 204.902 31.4416 206.942 32.0493L207.513 30.1325ZM200.545 29.1364C196.14 29.1364 192.126 30.2522 188.528 32.492L189.585 34.1899C192.851 32.1568 196.496 31.1364 200.545 31.1364V29.1364ZM188.526 32.4935C184.935 34.7436 182.102 38.0449 180.01 42.3467L181.808 43.2215C183.762 39.2051 186.36 36.211 189.588 34.1883L188.526 32.4935ZM180.008 42.3507C177.926 46.6802 176.909 51.94 176.909 58.0909H178.909C178.909 52.1509 179.892 47.2062 181.81 43.2175L180.008 42.3507ZM176.909 58.0909C176.909 64.2418 177.926 69.5016 180.008 73.8311L181.81 72.9644C179.892 68.9756 178.909 64.0309 178.909 58.0909H176.909ZM180.01 73.8351C182.102 78.1369 184.935 81.4383 188.526 83.6883L189.588 81.9935C186.36 79.9708 183.762 76.9767 181.808 72.9604L180.01 73.8351ZM188.528 83.6899C192.126 85.9296 196.14 87.0455 200.545 87.0455V85.0455C196.496 85.0455 192.851 84.025 189.585 81.992L188.528 83.6899ZM200.545 87.0455C202.956 87.0455 205.28 86.7143 207.513 86.0493L206.942 84.1325C204.902 84.7402 202.771 85.0455 200.545 85.0455V87.0455ZM207.513 86.0493C209.751 85.3826 211.795 84.3917 213.638 83.0751L212.476 81.4476C210.819 82.6311 208.976 83.5265 206.942 84.1325L207.513 86.0493ZM213.64 83.0737C215.512 81.7298 217.096 80.0853 218.389 78.1456L216.725 77.0362C215.563 78.7784 214.147 80.2475 212.474 81.449L213.64 83.0737ZM218.387 78.1479C219.716 76.1672 220.637 73.9083 221.161 71.385L219.203 70.9786C218.726 73.2735 217.898 75.2874 216.726 77.0339L218.387 78.1479ZM220.182 72.1818H228.636V70.1818H220.182V72.1818ZM227.652 71.0062C227.035 74.4679 225.914 77.5448 224.3 80.2489L226.018 81.2738C227.768 78.3416 228.965 75.0321 229.621 71.3574L227.652 71.0062ZM224.3 80.2489C222.679 82.9659 220.668 85.2706 218.266 87.1702L219.507 88.7389C222.105 86.684 224.276 84.1932 226.018 81.2738L224.3 80.2489ZM218.27 87.1667C215.865 89.0477 213.161 90.4826 210.154 91.4704L210.778 93.3705C213.998 92.3129 216.908 90.7705 219.502 88.7424L218.27 87.1667ZM210.152 91.4711C207.17 92.4576 203.97 92.9545 200.545 92.9545V94.9545C204.166 94.9545 207.58 94.4287 210.78 93.3698L210.152 91.4711ZM200.545 92.9545C194.762 92.9545 189.654 91.5443 185.191 88.7438L184.128 90.438C188.937 93.4557 194.42 94.9545 200.545 94.9545V92.9545ZM185.191 88.7438C180.725 85.9419 177.197 81.952 174.612 76.7376L172.82 77.626C175.553 83.1389 179.32 87.4217 184.128 90.438L185.191 88.7438ZM174.612 76.7376C172.035 71.5402 170.727 65.3352 170.727 58.0909H168.727C168.727 65.5739 170.078 72.0962 172.82 77.626L174.612 76.7376ZM170.727 58.0909C170.727 50.8466 172.035 44.6416 174.612 39.4442L172.82 38.5558C170.078 44.0856 168.727 50.608 168.727 58.0909H170.727ZM174.612 39.4442C177.197 34.2299 180.725 30.2399 185.191 27.438L184.128 25.7438C179.32 28.7601 175.553 33.0429 172.82 38.5558L174.612 39.4442ZM185.191 27.438C189.654 24.6376 194.762 23.2273 200.545 23.2273V21.2273C194.42 21.2273 188.937 22.7261 184.128 25.7438L185.191 27.438ZM200.545 23.2273C203.97 23.2273 207.17 23.7242 210.152 24.7107L210.78 22.812C207.58 21.7531 204.166 21.2273 200.545 21.2273V23.2273ZM210.154 24.7114C213.159 25.6985 215.861 27.1434 218.266 29.0457L219.507 27.477C216.912 25.4248 214 23.8697 210.778 22.8113L210.154 24.7114ZM218.27 29.0492C220.67 30.9251 222.68 33.217 224.3 35.9329L226.018 34.908C224.275 31.9875 222.103 29.5067 219.502 27.4736L218.27 29.0492ZM224.302 35.936C225.914 38.6149 227.034 41.69 227.652 45.1745L229.621 44.8255C228.966 41.1282 227.768 37.8169 226.016 34.9049L224.302 35.936Z" fill="black"/>
<path d="M9.68182 60.4545V55L53.5909 32.6364V41.3636L19.9091 57.5909L20.1818 57.0455V58.4091L19.9091 57.8636L53.5909 74.0909V82.8182L9.68182 60.4545Z" fill="#00A42E"/>
<path d="M9.68182 60.4545H8.68182V61.0675L9.22798 61.3456L9.68182 60.4545ZM9.68182 55L9.22798 54.1089L8.68182 54.3871V55H9.68182ZM53.5909 32.6364H54.5909V31.0048L53.1371 31.7453L53.5909 32.6364ZM53.5909 41.3636L54.0249 42.2645L54.5909 41.9919V41.3636H53.5909ZM19.9091 57.5909L19.0147 57.1437L17.7051 59.7627L20.3431 58.4918L19.9091 57.5909ZM20.1818 57.0455H21.1818L19.2874 56.5982L20.1818 57.0455ZM20.1818 58.4091L19.2874 58.8563L21.1818 58.4091H20.1818ZM19.9091 57.8636L20.3431 56.9627L17.7051 55.6918L19.0147 58.3108L19.9091 57.8636ZM53.5909 74.0909H54.5909V73.4627L54.0249 73.19L53.5909 74.0909ZM53.5909 82.8182L53.1371 83.7093L54.5909 84.4497V82.8182H53.5909ZM10.6818 60.4545V55H8.68182V60.4545H10.6818ZM10.1357 55.8911L54.0448 33.5274L53.1371 31.7453L9.22798 54.1089L10.1357 55.8911ZM52.5909 32.6364V41.3636H54.5909V32.6364H52.5909ZM53.1569 40.4627L19.4751 56.69L20.3431 58.4918L54.0249 42.2645L53.1569 40.4627ZM20.8035 58.0381L21.0762 57.4927L19.2874 56.5982L19.0147 57.1437L20.8035 58.0381ZM19.1818 57.0455V58.4091H21.1818V57.0455H19.1818ZM21.0762 57.9619L20.8035 57.4164L19.0147 58.3108L19.2874 58.8563L21.0762 57.9619ZM19.4751 58.7645L53.1569 74.9918L54.0249 73.19L20.3431 56.9627L19.4751 58.7645ZM52.5909 74.0909V82.8182H54.5909V74.0909H52.5909ZM54.0448 81.9271L10.1357 59.5635L9.22798 61.3456L53.1371 83.7093L54.0448 81.9271Z" fill="black"/>
<path d="M282.591 60.4545L238.682 82.8182V74.0909L272.364 57.8636L272.091 58.4091V57.0455L272.364 57.5909L238.682 41.3636V32.6364L282.591 55V60.4545Z" fill="#00A42E"/>
<path d="M282.591 60.4545L283.045 61.3456L283.591 61.0675V60.4545H282.591ZM238.682 82.8182H237.682V84.4497L239.136 83.7093L238.682 82.8182ZM238.682 74.0909L238.248 73.19L237.682 73.4627V74.0909H238.682ZM272.364 57.8636L273.258 58.3108L274.568 55.6918L271.93 56.9627L272.364 57.8636ZM272.091 58.4091H271.091L272.985 58.8563L272.091 58.4091ZM272.091 57.0455L272.985 56.5982L271.091 57.0455H272.091ZM272.364 57.5909L271.93 58.4918L274.568 59.7627L273.258 57.1437L272.364 57.5909ZM238.682 41.3636H237.682V41.9919L238.248 42.2645L238.682 41.3636ZM238.682 32.6364L239.136 31.7453L237.682 31.0048V32.6364H238.682ZM282.591 55H283.591V54.3871L283.045 54.1089L282.591 55ZM282.137 59.5635L238.228 81.9271L239.136 83.7093L283.045 61.3456L282.137 59.5635ZM239.682 82.8182V74.0909H237.682V82.8182H239.682ZM239.116 74.9918L272.798 58.7645L271.93 56.9627L238.248 73.19L239.116 74.9918ZM271.469 57.4164L271.196 57.9619L272.985 58.8563L273.258 58.3108L271.469 57.4164ZM273.091 58.4091V57.0455H271.091V58.4091H273.091ZM271.196 57.4927L271.469 58.0381L273.258 57.1437L272.985 56.5982L271.196 57.4927ZM272.798 56.69L239.116 40.4627L238.248 42.2645L271.93 58.4918L272.798 56.69ZM239.682 41.3636V32.6364H237.682V41.3636H239.682ZM238.228 33.5274L282.137 55.8911L283.045 54.1089L239.136 31.7453L238.228 33.5274ZM281.591 55V60.4545H283.591V55H281.591Z" fill="black"/>
</svg>